<svg width="18" height="17" viewBox="0 0 18 17" fill="none" xmlns="http://www.w3.org/2000/svg">
<path d="M9.0013 0.166992C4.4013 0.166992 0.667969 3.90033 0.667969 8.50033C0.667969 13.1003 4.4013 16.8337 9.0013 16.8337C13.6013 16.8337 17.3346 13.1003 17.3346 8.50033C17.3346 3.90033 13.6013 0.166992 9.0013 0.166992ZM9.0013 15.167C5.3263 15.167 2.33464 12.1753 2.33464 8.50033C2.33464 4.82533 5.3263 1.83366 9.0013 1.83366C12.6763 1.83366 15.668 4.82533 15.668 8.50033C15.668 12.1753 12.6763 15.167 9.0013 15.167ZM12.2346 5.40866L7.33464 10.3087L5.76797 8.74199C5.44297 8.41699 4.91797 8.41699 4.59297 8.74199C4.26797 9.06699 4.26797 9.59199 4.59297 9.91699L6.7513 12.0753C7.0763 12.4003 7.6013 12.4003 7.9263 12.0753L13.418 6.58366C13.743 6.25866 13.743 5.73366 13.418 5.40866C13.093 5.08366 12.5596 5.08366 12.2346 5.40866Z" fill="#0B0C0C"/>
</svg>
