<svg width="16" height="15" viewBox="0 0 16 15" fill="none" xmlns="http://www.w3.org/2000/svg">
<path d="M1.7264 14.4999H14.2764C15.5597 14.4999 16.3597 13.1083 15.7181 11.9999L9.44307 1.15828C8.8014 0.0499431 7.2014 0.0499431 6.55974 1.15828L0.284736 11.9999C-0.35693 13.1083 0.44307 14.4999 1.7264 14.4999ZM8.0014 8.66661C7.54307 8.66661 7.16807 8.29161 7.16807 7.83328V6.16661C7.16807 5.70828 7.54307 5.33328 8.0014 5.33328C8.45974 5.33328 8.83474 5.70828 8.83474 6.16661V7.83328C8.83474 8.29161 8.45974 8.66661 8.0014 8.66661ZM8.83474 11.9999H7.16807V10.3333H8.83474V11.9999Z" fill="#D0190F"/>
</svg>
