<svg width="15" height="18" viewBox="0 0 15 18" fill="none" xmlns="http://www.w3.org/2000/svg">
<path d="M1.5 16C1.5 17.1 2.4 18 3.5 18H11.5C12.6 18 13.5 17.1 13.5 16V6C13.5 4.9 12.6 4 11.5 4H3.5C2.4 4 1.5 4.9 1.5 6V16ZM4.67 8.17C5.06 7.78 5.69 7.78 6.08 8.17L7.5 9.59L8.92 8.17C9.31 7.78 9.94 7.78 10.33 8.17C10.72 8.56 10.72 9.19 10.33 9.58L8.91 11L10.33 12.42C10.72 12.81 10.72 13.44 10.33 13.83C9.94 14.22 9.31 14.22 8.92 13.83L7.5 12.41L6.08 13.83C5.69 14.22 5.06 14.22 4.67 13.83C4.28 13.44 4.28 12.81 4.67 12.42L6.09 11L4.67 9.58C4.28 9.2 4.28 8.56 4.67 8.17ZM11 1L10.29 0.29C10.11 0.11 9.85 0 9.59 0H5.41C5.15 0 4.89 0.11 4.71 0.29L4 1H1.5C0.95 1 0.5 1.45 0.5 2C0.5 2.55 0.95 3 1.5 3H13.5C14.05 3 14.5 2.55 14.5 2C14.5 1.45 14.05 1 13.5 1H11Z" fill="#D0190F"/>
</svg>
