<svg width="29" height="30" viewBox="0 0 29 30" fill="none" xmlns="http://www.w3.org/2000/svg">
<path d="M14.5007 0.833984C6.68065 0.833984 0.333984 7.18065 0.333984 15.0007C0.333984 22.8207 6.68065 29.1673 14.5007 29.1673C22.3207 29.1673 28.6673 22.8207 28.6673 15.0007C28.6673 7.18065 22.3207 0.833984 14.5007 0.833984ZM14.5007 26.334C8.25315 26.334 3.16732 21.2481 3.16732 15.0007C3.16732 8.75315 8.25315 3.66732 14.5007 3.66732C20.7481 3.66732 25.834 8.75315 25.834 15.0007C25.834 21.2481 20.7481 26.334 14.5007 26.334ZM19.9973 9.74482L11.6673 18.0748L9.00398 15.4115C8.45148 14.859 7.55898 14.859 7.00648 15.4115C6.45398 15.964 6.45398 16.8565 7.00648 17.409L10.6757 21.0782C11.2282 21.6307 12.1207 21.6307 12.6732 21.0782L22.009 11.7423C22.5615 11.1898 22.5615 10.2973 22.009 9.74482C21.4565 9.19232 20.5498 9.19232 19.9973 9.74482Z" fill="#00703C"/>
</svg>
