<svg width="17" height="9" viewBox="0 0 17 9" fill="none" xmlns="http://www.w3.org/2000/svg">
<path d="M12.666 0.333984H10.166C9.70768 0.333984 9.33268 0.708984 9.33268 1.16732C9.33268 1.62565 9.70768 2.00065 10.166 2.00065H12.666C14.041 2.00065 15.166 3.12565 15.166 4.50065C15.166 5.87565 14.041 7.00065 12.666 7.00065H10.166C9.70768 7.00065 9.33268 7.37565 9.33268 7.83398C9.33268 8.29232 9.70768 8.66732 10.166 8.66732H12.666C14.966 8.66732 16.8327 6.80065 16.8327 4.50065C16.8327 2.20065 14.966 0.333984 12.666 0.333984ZM5.16602 4.50065C5.16602 4.95898 5.54102 5.33398 5.99935 5.33398H10.9993C11.4577 5.33398 11.8327 4.95898 11.8327 4.50065C11.8327 4.04232 11.4577 3.66732 10.9993 3.66732H5.99935C5.54102 3.66732 5.16602 4.04232 5.16602 4.50065ZM6.83268 7.00065H4.33268C2.95768 7.00065 1.83268 5.87565 1.83268 4.50065C1.83268 3.12565 2.95768 2.00065 4.33268 2.00065H6.83268C7.29102 2.00065 7.66602 1.62565 7.66602 1.16732C7.66602 0.708984 7.29102 0.333984 6.83268 0.333984H4.33268C2.03268 0.333984 0.166016 2.20065 0.166016 4.50065C0.166016 6.80065 2.03268 8.66732 4.33268 8.66732H6.83268C7.29102 8.66732 7.66602 8.29232 7.66602 7.83398C7.66602 7.37565 7.29102 7.00065 6.83268 7.00065Z" fill="#0B0C0C"/>
</svg>
