<svg width="11" height="11" viewBox="0 0 11 11" fill="none" xmlns="http://www.w3.org/2000/svg">
<path d="M10.25 8.74167L7.01667 5.5L10.2583 2.25833C10.5833 1.93333 10.5833 1.40833 10.2583 1.08333C9.93333 0.758333 9.40833 0.758333 9.08333 1.08333L5.25833 4.90833C4.93333 5.23333 4.93333 5.75833 5.25833 6.08333L9.08333 9.90833C9.40833 10.2333 9.93333 10.2333 10.2583 9.90833C10.575 9.59167 10.575 9.05833 10.25 8.74167ZM1.33333 0.5C1.79167 0.5 2.16667 0.875 2.16667 1.33333V9.66667C2.16667 10.125 1.79167 10.5 1.33333 10.5C0.875 10.5 0.5 10.125 0.5 9.66667V1.33333C0.5 0.875 0.875 0.5 1.33333 0.5Z" fill="#0B0C0C"/>
</svg>
