<svg width="11" height="11" viewBox="0 0 11 11" fill="none" xmlns="http://www.w3.org/2000/svg">
<path d="M0.739844 2.25833L3.98151 5.5L0.739844 8.74167C0.414844 9.06667 0.414844 9.59167 0.739844 9.91667C1.06484 10.2417 1.58984 10.2417 1.91484 9.91667L5.73984 6.09167C6.06484 5.76667 6.06484 5.24167 5.73984 4.91667L1.91484 1.08333C1.58984 0.758333 1.06484 0.758333 0.739844 1.08333C0.423177 1.40833 0.423177 1.94167 0.739844 2.25833ZM9.66484 0.5C10.1232 0.5 10.4982 0.875 10.4982 1.33333V9.66667C10.4982 10.125 10.1232 10.5 9.66484 10.5C9.20651 10.5 8.83151 10.125 8.83151 9.66667V1.33333C8.83151 0.875 9.20651 0.5 9.66484 0.5Z" fill="#0B0C0C"/>
</svg>
