<svg width="16" height="11" viewBox="0 0 16 11" fill="none" xmlns="http://www.w3.org/2000/svg">
<path d="M3.1151 5.38328L0.798437 7.70828C0.640104 7.87495 0.640104 8.13328 0.798437 8.29995L3.1151 10.625C3.37344 10.8916 3.82344 10.7 3.82344 10.3333V8.83328H8.83177C9.2901 8.83328 9.6651 8.45828 9.6651 7.99995C9.6651 7.54162 9.2901 7.16662 8.83177 7.16662H3.82344V5.67495C3.82344 5.29995 3.37344 5.11662 3.1151 5.38328ZM15.2068 2.70828L12.8901 0.383285C12.6318 0.116618 12.1818 0.308285 12.1818 0.674951V2.16662H7.1651C6.70677 2.16662 6.33177 2.54162 6.33177 2.99995C6.33177 3.45828 6.70677 3.83328 7.1651 3.83328H12.1734V5.32495C12.1734 5.69995 12.6234 5.88329 12.8818 5.61662L15.1984 3.29162C15.3651 3.13328 15.3651 2.86662 15.2068 2.70828Z" fill="#0B0C0C"/>
</svg>
