<svg width="40" height="40" viewBox="0 0 40 40" fill="none" xmlns="http://www.w3.org/2000/svg">
<g clip-path="url(#clip0_994_57671)">
<path d="M29.9181 10.5836C27.2014 7.86698 23.3514 6.30031 19.1181 6.73365C13.0014 7.35031 7.96809 12.317 7.28475 18.4336C6.36809 26.517 12.6181 33.3336 20.5014 33.3336C25.8181 33.3336 30.3847 30.217 32.5181 25.7336C33.0514 24.617 32.2514 23.3336 31.0181 23.3336C30.4014 23.3336 29.8181 23.667 29.5514 24.217C27.6681 28.267 23.1514 30.8336 18.2181 29.7336C14.5181 28.917 11.5348 25.9003 10.7514 22.2003C9.35142 15.7336 14.2681 10.0003 20.5014 10.0003C23.2681 10.0003 25.7348 11.1503 27.5348 12.967L25.0181 15.4836C23.9681 16.5336 24.7014 18.3336 26.1848 18.3336H32.1681C33.0848 18.3336 33.8348 17.5836 33.8348 16.667V10.6836C33.8348 9.20031 32.0348 8.45031 30.9848 9.50031L29.9181 10.5836V10.5836Z" fill="#0065B3"/>
</g>
<defs>
<clipPath id="clip0_994_57671">
<rect width="40" height="40" transform="translate(0.5)"/>
</clipPath>
</defs>
</svg>
