<svg width="14" height="14" viewBox="0 0 14 14" fill="none" xmlns="http://www.w3.org/2000/svg">
<path d="M13.2987 0.709971C12.9087 0.319971 12.2787 0.319971 11.8887 0.709971L6.99875 5.58997L2.10875 0.699971C1.71875 0.309971 1.08875 0.309971 0.69875 0.699971C0.30875 1.08997 0.30875 1.71997 0.69875 2.10997L5.58875 6.99997L0.69875 11.89C0.30875 12.28 0.30875 12.91 0.69875 13.3C1.08875 13.69 1.71875 13.69 2.10875 13.3L6.99875 8.40997L11.8887 13.3C12.2787 13.69 12.9087 13.69 13.2987 13.3C13.6887 12.91 13.6887 12.28 13.2987 11.89L8.40875 6.99997L13.2987 2.10997C13.6787 1.72997 13.6787 1.08997 13.2987 0.709971Z" fill="#626A6E"/>
</svg>
