<svg width="18" height="17" viewBox="0 0 18 17" fill="none" xmlns="http://www.w3.org/2000/svg">
<path d="M10.5763 5.75033L9.0013 7.32533L7.4263 5.75033C7.1013 5.42533 6.5763 5.42533 6.2513 5.75033C5.9263 6.07533 5.9263 6.60033 6.2513 6.92533L7.8263 8.50033L6.2513 10.0753C5.9263 10.4003 5.9263 10.9253 6.2513 11.2503C6.5763 11.5753 7.1013 11.5753 7.4263 11.2503L9.0013 9.67533L10.5763 11.2503C10.9013 11.5753 11.4263 11.5753 11.7513 11.2503C12.0763 10.9253 12.0763 10.4003 11.7513 10.0753L10.1763 8.50033L11.7513 6.92533C12.0763 6.60033 12.0763 6.07533 11.7513 5.75033C11.4263 5.43366 10.893 5.43366 10.5763 5.75033ZM9.0013 0.166992C4.39297 0.166992 0.667969 3.89199 0.667969 8.50033C0.667969 13.1087 4.39297 16.8337 9.0013 16.8337C13.6096 16.8337 17.3346 13.1087 17.3346 8.50033C17.3346 3.89199 13.6096 0.166992 9.0013 0.166992ZM9.0013 15.167C5.3263 15.167 2.33464 12.1753 2.33464 8.50033C2.33464 4.82533 5.3263 1.83366 9.0013 1.83366C12.6763 1.83366 15.668 4.82533 15.668 8.50033C15.668 12.1753 12.6763 15.167 9.0013 15.167Z" fill="#0B0C0C"/>
</svg>
