<svg width="20" height="21" viewBox="0 0 20 21" fill="none" xmlns="http://www.w3.org/2000/svg">
<g clip-path="url(#clip0_2352_37373)">
<path d="M8.33464 13.8331H11.668C12.1263 13.8331 12.5013 13.4581 12.5013 12.9998V8.83311H13.8263C14.568 8.83311 14.943 7.93311 14.418 7.40811L10.593 3.58311C10.268 3.25811 9.74297 3.25811 9.41797 3.58311L5.59297 7.40811C5.06797 7.93311 5.43464 8.83311 6.1763 8.83311H7.5013V12.9998C7.5013 13.4581 7.8763 13.8331 8.33464 13.8331ZM5.0013 15.4998H15.0013C15.4596 15.4998 15.8346 15.8748 15.8346 16.3331C15.8346 16.7914 15.4596 17.1664 15.0013 17.1664H5.0013C4.54297 17.1664 4.16797 16.7914 4.16797 16.3331C4.16797 15.8748 4.54297 15.4998 5.0013 15.4998Z" fill="#0B0C0C"/>
</g>
<defs>
<clipPath id="clip0_2352_37373">
<rect width="20" height="20" fill="white" transform="translate(0 0.5)"/>
</clipPath>
</defs>
</svg>
