<svg width="20" height="21" viewBox="0 0 20 21" fill="none" xmlns="http://www.w3.org/2000/svg">
<g clip-path="url(#clip0_2352_37366)">
<path d="M13.8263 8H12.5013V3.83333C12.5013 3.375 12.1263 3 11.668 3H8.33464C7.8763 3 7.5013 3.375 7.5013 3.83333V8H6.1763C5.43464 8 5.05964 8.9 5.58464 9.425L9.40964 13.25C9.73464 13.575 10.2596 13.575 10.5846 13.25L14.4096 9.425C14.9346 8.9 14.568 8 13.8263 8ZM4.16797 16.3333C4.16797 16.7917 4.54297 17.1667 5.0013 17.1667H15.0013C15.4596 17.1667 15.8346 16.7917 15.8346 16.3333C15.8346 15.875 15.4596 15.5 15.0013 15.5H5.0013C4.54297 15.5 4.16797 15.875 4.16797 16.3333Z" fill="#0B0C0C"/>
</g>
<defs>
<clipPath id="clip0_2352_37366">
<rect width="20" height="20" fill="white" transform="translate(0 0.5)"/>
</clipPath>
</defs>
</svg>
