
<svg width="23" height="25" viewBox="0 0 23 25" fill="none" xmlns="http://www.w3.org/2000/svg">
<path d="M16.0105 3.84276L12.993 0.825264C12.1146 -0.053069 10.5846 0.570264 10.5846 1.8311V2.7661C5.00297 3.46026 0.667969 8.22027 0.667969 14.0003C0.667969 19.1569 4.11047 23.5061 8.84214 24.8803C9.72047 25.1353 10.5846 24.4269 10.5846 23.5203V23.4778C10.5846 22.8686 10.2021 22.3161 9.6213 22.1461C6.07963 21.1261 3.5013 17.8678 3.5013 14.0003C3.5013 9.79277 6.5613 6.30776 10.5846 5.62776V7.79526C10.5846 9.0561 12.1005 9.67943 12.993 8.8011L16.0105 5.85443C16.5771 5.3161 16.5771 4.40943 16.0105 3.84276V3.84276ZM22.8671 10.8269C22.6405 10.0478 22.3288 9.29693 21.9321 8.57443C21.493 7.76693 20.3738 7.63943 19.7221 8.2911L19.708 8.30526C19.2688 8.74443 19.1696 9.41026 19.4671 9.9486C19.7505 10.4728 19.9771 11.0253 20.1471 11.5919C20.3171 12.1869 20.8696 12.5836 21.4788 12.5836H21.5071C22.428 12.5836 23.1363 11.7053 22.8671 10.8269V10.8269ZM13.418 23.4636V23.4919C13.418 24.4128 14.2963 25.1069 15.1746 24.8519C15.9538 24.6253 16.7046 24.3136 17.4271 23.9169C18.2346 23.4778 18.3621 22.3586 17.7105 21.7069L17.6821 21.6786C17.243 21.2394 16.5771 21.1403 16.0388 21.4378C15.5146 21.7353 14.9621 21.9619 14.3955 22.1319C13.8146 22.3019 13.418 22.8544 13.418 23.4636V23.4636ZM19.708 19.7094C20.3596 20.3611 21.4788 20.2336 21.918 19.4261C22.3146 18.7036 22.6263 17.9528 22.8671 17.1736C23.1221 16.2953 22.428 15.4169 21.5071 15.4169H21.4788C20.8555 15.4169 20.3171 15.8136 20.1471 16.4086C19.9771 16.9753 19.7505 17.5278 19.4671 18.0661C19.1696 18.6044 19.283 19.2844 19.708 19.7094Z" fill="#626A6E"/>
</svg>