<svg width="88" height="48" viewBox="0 0 88 48" fill="none" xmlns="http://www.w3.org/2000/svg">
<g clip-path="url(#clip0_865_32926)">
<mask id="path-1-inside-1_865_32926" fill="white">
<path d="M7.07202 7.07204C11.3855 2.75853 17.1945 0.271827 23.2931 0.12817C29.3916 -0.0154865 35.3112 2.19494 39.8231 6.30056L35.5581 10.9876C32.2511 7.97834 27.9123 6.3582 23.4423 6.46349C18.9723 6.56879 14.7146 8.39142 11.553 11.553L7.07202 7.07204Z"/>
</mask>
<path d="M7.07202 7.07204L-0.706154 -0.706129L-8.48433 7.07205L-0.706153 14.8502L7.07202 7.07204ZM39.8231 6.30056L47.9589 13.7039L55.3622 5.56809L47.2264 -1.83522L39.8231 6.30056ZM35.5581 10.9876L28.1547 19.1234L36.2905 26.5267L43.6938 18.3909L35.5581 10.9876ZM11.553 11.553L3.77484 19.3312L11.553 27.1094L19.3312 19.3312L11.553 11.553ZM14.8502 14.8502C17.1642 12.5362 20.2805 11.2022 23.5521 11.1251L23.034 -10.8688C14.1086 -10.6585 5.60686 -7.01914 -0.706154 -0.706129L14.8502 14.8502ZM23.5521 11.1251C26.8237 11.0481 29.9994 12.2339 32.4198 14.4364L47.2264 -1.83522C40.6231 -7.84398 31.9595 -11.079 23.034 -10.8688L23.5521 11.1251ZM31.6873 -1.10274L27.4223 3.58427L43.6938 18.3909L47.9589 13.7039L31.6873 -1.10274ZM42.9614 2.85179C37.563 -2.06058 30.4801 -4.70534 23.1833 -4.53346L23.7013 17.4604C25.3444 17.4217 26.9392 18.0173 28.1547 19.1234L42.9614 2.85179ZM23.1833 -4.53346C15.8864 -4.36157 8.93594 -1.38625 3.77484 3.77486L19.3312 19.3312C20.4933 18.1691 22.0583 17.4991 23.7013 17.4604L23.1833 -4.53346ZM19.3312 3.77486L14.8502 -0.70613L-0.706153 14.8502L3.77484 19.3312L19.3312 3.77486Z" fill="#003078" mask="url(#path-1-inside-1_865_32926)"/>
<mask id="path-3-inside-2_865_32926" fill="white">
<path d="M6.23907 39.7553C2.38909 35.4914 0.216562 29.9758 0.12461 24.2317C0.0326572 18.4877 2.02753 12.9053 5.73905 8.52045L10.576 12.6146C7.85563 15.8285 6.39348 19.9202 6.46088 24.1303C6.52827 28.3404 8.12064 32.3832 10.9425 35.5083L6.23907 39.7553Z"/>
</mask>
<path d="M6.23907 39.7553L-1.92522 47.1271L5.44665 55.2914L13.6109 47.9195L6.23907 39.7553ZM5.73905 8.52045L12.8458 0.124384L4.44975 -6.98238L-2.65701 1.41368L5.73905 8.52045ZM10.576 12.6146L18.9721 19.7214L26.0788 11.3253L17.6828 4.21858L10.576 12.6146ZM10.9425 35.5083L18.3144 43.6726L26.4786 36.3008L19.1068 28.1365L10.9425 35.5083ZM14.4034 32.3834C12.338 30.096 11.1725 27.1371 11.1232 24.0557L-10.874 24.4078C-10.7394 32.8144 -7.55982 40.8869 -1.92522 47.1271L14.4034 32.3834ZM11.1232 24.0557C11.0739 20.9742 12.144 17.9795 14.1351 15.6272L-2.65701 1.41368C-8.08898 7.83111 -11.0086 16.0012 -10.874 24.4078L11.1232 24.0557ZM-1.36772 16.9165L3.46924 21.0107L17.6828 4.21858L12.8458 0.124384L-1.36772 16.9165ZM2.17994 5.50787C-2.26088 10.7543 -4.64774 17.4336 -4.53771 24.3064L17.4595 23.9542C17.4347 22.4067 17.9721 20.9027 18.9721 19.7214L2.17994 5.50787ZM-4.53771 24.3064C-4.42769 31.1791 -1.82827 37.7786 2.77821 42.8802L19.1068 28.1365C18.0695 26.9877 17.4842 25.5017 17.4595 23.9542L-4.53771 24.3064ZM3.57063 27.344L-1.1328 31.591L13.6109 47.9195L18.3144 43.6726L3.57063 27.344Z" fill="#0065B3" mask="url(#path-3-inside-2_865_32926)"/>
<mask id="path-5-inside-3_865_32926" fill="white">
<path d="M40.6318 40.6317C36.3183 44.9453 30.5093 47.432 24.4107 47.5756C18.3122 47.7193 12.3925 45.5088 7.88071 41.4032L12.1457 36.7162C15.4527 39.7254 19.7915 41.3456 24.2615 41.2403C28.7315 41.135 32.9892 39.3124 36.1508 36.1508L40.6318 40.6317Z"/>
</mask>
<path d="M40.6318 40.6317L48.41 48.4099L56.1881 40.6317L48.41 32.8536L40.6318 40.6317ZM7.88071 41.4032L-0.255074 33.9999L-7.65839 42.1357L0.477391 49.539L7.88071 41.4032ZM12.1457 36.7162L19.5491 28.5804L11.4133 21.1771L4.00996 29.3129L12.1457 36.7162ZM36.1508 36.1508L43.929 28.3726L36.1508 20.5944L28.3726 28.3726L36.1508 36.1508ZM32.8536 32.8536C30.5396 35.1676 27.4233 36.5016 24.1517 36.5787L24.6698 58.5726C33.5952 58.3623 42.0969 54.7229 48.41 48.4099L32.8536 32.8536ZM24.1517 36.5787C20.8801 36.6557 17.7044 35.4699 15.284 33.2674L0.477391 49.539C7.08065 55.5478 15.7443 58.7828 24.6698 58.5726L24.1517 36.5787ZM16.0165 48.8065L20.2815 44.1195L4.00996 29.3129L-0.255074 33.9999L16.0165 48.8065ZM4.74243 44.852C10.1408 49.7644 17.2236 52.4091 24.5205 52.2373L24.0025 30.2434C22.3594 30.2821 20.7646 29.6865 19.5491 28.5804L4.74243 44.852ZM24.5205 52.2373C31.8174 52.0654 38.7679 49.09 43.929 43.9289L28.3726 28.3726C27.2105 29.5347 25.6455 30.2046 24.0025 30.2434L24.5205 52.2373ZM28.3726 43.9289L32.8536 48.4099L48.41 32.8536L43.929 28.3726L28.3726 43.9289Z" fill="#2B8CC4" mask="url(#path-5-inside-3_865_32926)"/>
<path d="M17.9931 32.0892V15.5761H21.3007L24.2297 23.6559C24.4148 24.1777 24.5916 24.7164 24.7599 25.2719C24.9451 25.8105 25.1218 26.3492 25.2901 26.8878H25.3911C25.5763 26.3492 25.753 25.8105 25.9214 25.2719C26.0897 24.7164 26.258 24.1777 26.4263 23.6559L29.2795 15.5761H32.6124V32.0892H29.9108V24.5397C29.9108 24.0178 29.9276 23.4539 29.9613 22.848C30.0118 22.2251 30.0622 21.6023 30.1127 20.9795C30.1801 20.3567 30.239 19.7928 30.2895 19.2878H30.1885L28.8503 23.1257L26.1486 30.549H24.4064L21.6795 23.1257L20.3665 19.2878H20.2655C20.316 19.7928 20.3665 20.3567 20.417 20.9795C20.4843 21.6023 20.5348 22.2251 20.5685 22.848C20.619 23.4539 20.6443 24.0178 20.6443 24.5397V32.0892H17.9931Z" fill="#003078"/>
<path d="M41.8566 32.3922C40.712 32.3922 39.6768 32.1397 38.751 31.6347C37.8252 31.1129 37.0929 30.3722 36.5543 29.4128C36.0156 28.4365 35.7463 27.2666 35.7463 25.9031C35.7463 24.5565 36.0156 23.395 36.5543 22.4187C37.1098 21.4424 37.8252 20.6933 38.7005 20.1715C39.5758 19.6497 40.4932 19.3888 41.4527 19.3888C42.5805 19.3888 43.5231 19.6413 44.2806 20.1463C45.0381 20.6344 45.6104 21.3246 45.9975 22.2167C46.3847 23.092 46.5783 24.1104 46.5783 25.2719C46.5783 25.8779 46.5362 26.3492 46.452 26.6858H38.5742C38.7089 27.78 39.1045 28.63 39.7609 29.236C40.4174 29.842 41.2422 30.145 42.2354 30.145C42.774 30.145 43.2706 30.0693 43.7251 29.9178C44.1964 29.7494 44.6593 29.5222 45.1138 29.236L46.0985 31.054C45.5094 31.4411 44.8529 31.761 44.1291 32.0135C43.4053 32.2659 42.6478 32.3922 41.8566 32.3922ZM38.549 24.7164H44.0533C44.0533 23.7569 43.8429 23.0079 43.4221 22.4692C43.0013 21.9137 42.37 21.636 41.5284 21.636C40.8046 21.636 40.1565 21.9053 39.5842 22.444C39.0287 22.9658 38.6836 23.7233 38.549 24.7164Z" fill="#003078"/>
<path d="M53.4731 32.3922C52.0423 32.3922 51.0239 31.9798 50.4179 31.155C49.8288 30.3133 49.5342 29.2276 49.5342 27.8978V21.9895H47.7668V19.818L49.6857 19.6918L50.0392 16.3084H52.4631V19.6918H55.6193V21.9895H52.4631V27.8978C52.4631 29.3454 53.0439 30.0693 54.2053 30.0693C54.4242 30.0693 54.6514 30.044 54.8871 29.9935C55.1227 29.9262 55.3247 29.8588 55.4931 29.7915L55.998 31.9377C55.6614 32.0555 55.2742 32.1565 54.8366 32.2407C54.4157 32.3417 53.9613 32.3922 53.4731 32.3922Z" fill="#003078"/>
<path d="M60.6905 32.3922C59.6132 32.3922 58.7294 32.0555 58.0393 31.3822C57.366 30.7089 57.0293 29.8336 57.0293 28.7563C57.0293 27.4265 57.6101 26.3997 58.7715 25.6759C59.933 24.9352 61.7846 24.4302 64.3264 24.1609C64.3095 23.5044 64.1328 22.9405 63.7961 22.4692C63.4763 21.9811 62.8956 21.737 62.0539 21.737C61.4479 21.737 60.8504 21.8548 60.2612 22.0905C59.6889 22.3261 59.125 22.6123 58.5695 22.9489L57.5091 21.0048C58.1992 20.5671 58.9735 20.1884 59.832 19.8685C60.7073 19.5487 61.6331 19.3888 62.6094 19.3888C64.158 19.3888 65.3111 19.8517 66.0686 20.7775C66.8429 21.6865 67.23 23.0079 67.23 24.7417V32.0892H64.8314L64.6294 30.7257H64.5284C63.9729 31.1971 63.3753 31.5926 62.7357 31.9125C62.1129 32.2323 61.4311 32.3922 60.6905 32.3922ZM61.6247 30.1198C62.1297 30.1198 62.5842 30.0019 62.9882 29.7663C63.409 29.5138 63.855 29.1771 64.3264 28.7563V25.9789C62.6431 26.1977 61.4732 26.5259 60.8167 26.9636C60.1602 27.3844 59.832 27.9062 59.832 28.529C59.832 29.0845 60.0003 29.4885 60.337 29.741C60.6736 29.9935 61.1029 30.1198 61.6247 30.1198Z" fill="#003078"/>
<path d="M71.1342 32.0892V15.5256H73.2299V32.0892H71.1342Z" fill="#003078"/>
<path d="M82.3625 32.3922C81.201 32.3922 80.1237 32.1734 79.1306 31.7357C78.1374 31.2812 77.2789 30.6837 76.5551 29.943L77.8176 28.4785C78.4067 29.1014 79.0969 29.6064 79.888 29.9935C80.696 30.3638 81.5293 30.549 82.3877 30.549C83.4819 30.549 84.3319 30.3049 84.9379 29.8168C85.5439 29.3118 85.8469 28.6553 85.8469 27.8473C85.8469 27.275 85.7206 26.8205 85.4681 26.4839C85.2325 26.1472 84.9042 25.861 84.4834 25.6254C84.0794 25.3897 83.6165 25.1541 83.0947 24.9184L80.7213 23.8832C80.1995 23.6643 79.6776 23.3782 79.1558 23.0247C78.6508 22.6712 78.2216 22.2167 77.8681 21.6612C77.5314 21.1057 77.3631 20.424 77.3631 19.616C77.3631 18.7744 77.5819 18.0253 78.0196 17.3688C78.4741 16.6955 79.0969 16.1737 79.888 15.8034C80.6792 15.4162 81.5713 15.2227 82.5645 15.2227C83.5576 15.2227 84.475 15.4162 85.3166 15.8034C86.1583 16.1737 86.8737 16.6619 87.4628 17.2679L86.3266 18.6313C85.8216 18.1432 85.2577 17.7644 84.6349 17.4951C84.0289 17.2089 83.3388 17.0659 82.5645 17.0659C81.6387 17.0659 80.8896 17.2847 80.3173 17.7223C79.7618 18.16 79.4841 18.7491 79.4841 19.4898C79.4841 20.0116 79.6187 20.4493 79.888 20.8028C80.1742 21.1394 80.5277 21.4172 80.9485 21.636C81.3693 21.8548 81.7986 22.0568 82.2362 22.242L84.5844 23.2519C85.2241 23.5213 85.7964 23.8495 86.3014 24.2367C86.8232 24.607 87.2356 25.0699 87.5386 25.6254C87.8416 26.164 87.9931 26.8458 87.9931 27.6706C87.9931 28.5459 87.7658 29.3454 87.3113 30.0693C86.8569 30.7762 86.2088 31.3401 85.3671 31.761C84.5255 32.1818 83.5239 32.3922 82.3625 32.3922Z" fill="#003078"/>
</g>
<defs>
<clipPath id="clip0_865_32926">
<rect width="88" height="48" fill="white"/>
</clipPath>
</defs>
</svg>
