<svg width="24" height="25" viewBox="0 0 24 25" fill="none" xmlns="http://www.w3.org/2000/svg">
<path d="M19 3.5L14.82 3.5C14.4 2.34 13.3 1.5 12 1.5C10.7 1.5 9.6 2.34 9.18 3.5L5 3.5C3.9 3.5 3 4.4 3 5.5L3 19.5C3 20.6 3.9 21.5 5 21.5L19 21.5C20.1 21.5 21 20.6 21 19.5L21 5.5C21 4.4 20.1 3.5 19 3.5ZM12 3.5C12.55 3.5 13 3.95 13 4.5C13 5.05 12.55 5.5 12 5.5C11.45 5.5 11 5.05 11 4.5C11 3.95 11.45 3.5 12 3.5ZM9.29 16.79L6.7 14.2C6.31 13.81 6.31 13.18 6.7 12.79C7.09 12.4 7.72 12.4 8.11 12.79L10 14.67L15.88 8.79C16.27 8.4 16.9 8.4 17.29 8.79C17.68 9.18 17.68 9.81 17.29 10.2L10.7 16.79C10.32 17.18 9.68 17.18 9.29 16.79Z" fill="#0065B3"/>
</svg>
