<svg width="24" height="25" viewBox="0 0 24 25" fill="none" xmlns="http://www.w3.org/2000/svg">
<path d="M13 10.5L3 10.5C2.45 10.5 2 10.95 2 11.5C2 12.05 2.45 12.5 3 12.5L13 12.5C13.55 12.5 14 12.05 14 11.5C14 10.95 13.55 10.5 13 10.5ZM13 6.5L3 6.5C2.45 6.5 2 6.95 2 7.5C2 8.05 2.45 8.5 3 8.5L13 8.5C13.55 8.5 14 8.05 14 7.5C14 6.95 13.55 6.5 13 6.5ZM3 16.5H9C9.55 16.5 10 16.05 10 15.5C10 14.95 9.55 14.5 9 14.5L3 14.5C2.45 14.5 2 14.95 2 15.5C2 16.05 2.45 16.5 3 16.5ZM22.21 12.71L22.3 12.8C22.69 13.19 22.69 13.82 22.3 14.21L16.72 19.8C16.33 20.19 15.7 20.19 15.31 19.8L12.22 16.71C11.83 16.32 11.83 15.69 12.22 15.3L12.31 15.21C12.7 14.82 13.33 14.82 13.72 15.21L16.02 17.51L20.8 12.72C21.18 12.32 21.82 12.32 22.21 12.71Z" fill="#0065B3"/>
</svg>
