<svg width="24" height="25" viewBox="0 0 24 25" fill="none" xmlns="http://www.w3.org/2000/svg">
<path d="M14.85 5.35L16.29 6.79L13.41 9.67L14.83 11.09L17.71 8.21L19.15 9.65C19.46 9.96 20 9.74 20 9.29V5C20 4.72 19.78 4.5 19.5 4.5L15.21 4.5C14.76 4.5 14.54 5.04 14.85 5.35ZM8.79 4.5L4.5 4.5C4.22 4.5 4 4.72 4 5L4 9.29C4 9.74 4.54 9.96 4.85 9.64L6.29 8.2L11 12.9L11 19.5C11 20.05 11.45 20.5 12 20.5C12.55 20.5 13 20.05 13 19.5V12.5C13 12.24 12.89 11.98 12.71 11.79L7.71 6.78L9.15 5.34C9.46 5.04 9.24 4.5 8.79 4.5Z" fill="#0065B3"/>
</svg>
