<svg width="24" height="25" viewBox="0 0 24 25" fill="none" xmlns="http://www.w3.org/2000/svg">
<path d="M6.4 9.7H6.6C7.37 9.7 8 10.33 8 11.1L8 18.1C8 18.87 7.37 19.5 6.6 19.5H6.4C5.63 19.5 5 18.87 5 18.1L5 11.1C5 10.33 5.63 9.7 6.4 9.7ZM12 5.5C12.77 5.5 13.4 6.13 13.4 6.9L13.4 18.1C13.4 18.87 12.77 19.5 12 19.5C11.23 19.5 10.6 18.87 10.6 18.1L10.6 6.9C10.6 6.13 11.23 5.5 12 5.5ZM17.6 13.5C18.37 13.5 19 14.13 19 14.9V18.1C19 18.87 18.37 19.5 17.6 19.5C16.83 19.5 16.2 18.87 16.2 18.1V14.9C16.2 14.13 16.83 13.5 17.6 13.5Z" fill="#0065B3"/>
</svg>
