<svg width="20" height="21" viewBox="0 0 20 21" fill="none" xmlns="http://www.w3.org/2000/svg">
<g clip-path="url(#clip0_2352_37380)">
<path d="M15.0013 11.3332H10.8346V15.4998C10.8346 15.9582 10.4596 16.3332 10.0013 16.3332C9.54297 16.3332 9.16797 15.9582 9.16797 15.4998V11.3332H5.0013C4.54297 11.3332 4.16797 10.9582 4.16797 10.4998C4.16797 10.0415 4.54297 9.6665 5.0013 9.6665H9.16797V5.49984C9.16797 5.0415 9.54297 4.6665 10.0013 4.6665C10.4596 4.6665 10.8346 5.0415 10.8346 5.49984V9.6665H15.0013C15.4596 9.6665 15.8346 10.0415 15.8346 10.4998C15.8346 10.9582 15.4596 11.3332 15.0013 11.3332Z" fill="white"/>
</g>
<defs>
<clipPath id="clip0_2352_37380">
<rect width="20" height="20" fill="white" transform="translate(0 0.5)"/>
</clipPath>
</defs>
</svg>
