<svg width="21" height="21" viewBox="0 0 21 21" fill="none" xmlns="http://www.w3.org/2000/svg">
<g clip-path="url(#clip0_4894_208961)">
<path d="M14.7305 6.33398H12.2305C11.7721 6.33398 11.3971 6.70898 11.3971 7.16732C11.3971 7.62565 11.7721 8.00065 12.2305 8.00065H14.7305C16.1055 8.00065 17.2305 9.12565 17.2305 10.5007C17.2305 11.8757 16.1055 13.0007 14.7305 13.0007H12.2305C11.7721 13.0007 11.3971 13.3757 11.3971 13.834C11.3971 14.2923 11.7721 14.6673 12.2305 14.6673H14.7305C17.0305 14.6673 18.8971 12.8007 18.8971 10.5007C18.8971 8.20065 17.0305 6.33398 14.7305 6.33398ZM7.23047 10.5007C7.23047 10.959 7.60547 11.334 8.0638 11.334H13.0638C13.5221 11.334 13.8971 10.959 13.8971 10.5007C13.8971 10.0423 13.5221 9.66732 13.0638 9.66732H8.0638C7.60547 9.66732 7.23047 10.0423 7.23047 10.5007ZM8.89714 13.0007H6.39714C5.02214 13.0007 3.89714 11.8757 3.89714 10.5007C3.89714 9.12565 5.02214 8.00065 6.39714 8.00065H8.89714C9.35547 8.00065 9.73047 7.62565 9.73047 7.16732C9.73047 6.70898 9.35547 6.33398 8.89714 6.33398H6.39714C4.09714 6.33398 2.23047 8.20065 2.23047 10.5007C2.23047 12.8007 4.09714 14.6673 6.39714 14.6673H8.89714C9.35547 14.6673 9.73047 14.2923 9.73047 13.834C9.73047 13.3757 9.35547 13.0007 8.89714 13.0007Z" fill="#0B0C0C"/>
</g>
<defs>
<clipPath id="clip0_4894_208961">
<rect width="20" height="20" fill="white" transform="translate(0.5625 0.5)"/>
</clipPath>
</defs>
</svg>
