<svg width="21" height="21" viewBox="0 0 21 21" fill="none" xmlns="http://www.w3.org/2000/svg">
<g clip-path="url(#clip0_4894_219299)">
<path d="M7.23047 6.33398H17.2305C17.6888 6.33398 18.0638 5.95898 18.0638 5.50065C18.0638 5.04232 17.6888 4.66732 17.2305 4.66732H7.23047C6.77214 4.66732 6.39714 5.04232 6.39714 5.50065C6.39714 5.95898 6.77214 6.33398 7.23047 6.33398ZM17.2305 14.6673H7.23047C6.77214 14.6673 6.39714 15.0423 6.39714 15.5007C6.39714 15.959 6.77214 16.334 7.23047 16.334H17.2305C17.6888 16.334 18.0638 15.959 18.0638 15.5007C18.0638 15.0423 17.6888 14.6673 17.2305 14.6673ZM17.2305 9.66732H7.23047C6.77214 9.66732 6.39714 10.0423 6.39714 10.5007C6.39714 10.959 6.77214 11.334 7.23047 11.334H17.2305C17.6888 11.334 18.0638 10.959 18.0638 10.5007C18.0638 10.0423 17.6888 9.66732 17.2305 9.66732ZM4.3138 13.834H2.64714C2.4138 13.834 2.23047 14.0173 2.23047 14.2507C2.23047 14.484 2.4138 14.6673 2.64714 14.6673H3.89714V15.084H3.48047C3.24714 15.084 3.0638 15.2673 3.0638 15.5007C3.0638 15.734 3.24714 15.9173 3.48047 15.9173H3.89714V16.334H2.64714C2.4138 16.334 2.23047 16.5173 2.23047 16.7507C2.23047 16.984 2.4138 17.1673 2.64714 17.1673H4.3138C4.54714 17.1673 4.73047 16.984 4.73047 16.7507V14.2507C4.73047 14.0173 4.54714 13.834 4.3138 13.834ZM2.64714 4.66732H3.0638V6.75065C3.0638 6.98398 3.24714 7.16732 3.48047 7.16732C3.7138 7.16732 3.89714 6.98398 3.89714 6.75065V4.25065C3.89714 4.01732 3.7138 3.83398 3.48047 3.83398H2.64714C2.4138 3.83398 2.23047 4.01732 2.23047 4.25065C2.23047 4.48398 2.4138 4.66732 2.64714 4.66732ZM4.3138 8.83398H2.64714C2.4138 8.83398 2.23047 9.01732 2.23047 9.25065C2.23047 9.48398 2.4138 9.66732 2.64714 9.66732H3.73047L2.33047 11.3007C2.2638 11.3757 2.23047 11.4757 2.23047 11.5673V11.7507C2.23047 11.984 2.4138 12.1673 2.64714 12.1673H4.3138C4.54714 12.1673 4.73047 11.984 4.73047 11.7507C4.73047 11.5173 4.54714 11.334 4.3138 11.334H3.23047L4.63047 9.70065C4.69714 9.62565 4.73047 9.52565 4.73047 9.43398V9.25065C4.73047 9.01732 4.54714 8.83398 4.3138 8.83398Z" fill="#0B0C0C"/>
</g>
<defs>
<clipPath id="clip0_4894_219299">
<rect width="20" height="20" fill="white" transform="translate(0.5625 0.5)"/>
</clipPath>
</defs>
</svg>
