<svg width="21" height="21" viewBox="0 0 21 21" fill="none" xmlns="http://www.w3.org/2000/svg">
<g clip-path="url(#clip0_4894_203938)">
<path d="M3.89453 9.25C3.20286 9.25 2.64453 9.80833 2.64453 10.5C2.64453 11.1917 3.20286 11.75 3.89453 11.75C4.5862 11.75 5.14453 11.1917 5.14453 10.5C5.14453 9.80833 4.5862 9.25 3.89453 9.25ZM3.89453 4.25C3.20286 4.25 2.64453 4.80833 2.64453 5.5C2.64453 6.19167 3.20286 6.75 3.89453 6.75C4.5862 6.75 5.14453 6.19167 5.14453 5.5C5.14453 4.80833 4.5862 4.25 3.89453 4.25ZM3.89453 14.25C3.20286 14.25 2.64453 14.8167 2.64453 15.5C2.64453 16.1833 3.2112 16.75 3.89453 16.75C4.57786 16.75 5.14453 16.1833 5.14453 15.5C5.14453 14.8167 4.5862 14.25 3.89453 14.25ZM7.22786 16.3333H17.2279C17.6862 16.3333 18.0612 15.9583 18.0612 15.5C18.0612 15.0417 17.6862 14.6667 17.2279 14.6667H7.22786C6.76953 14.6667 6.39453 15.0417 6.39453 15.5C6.39453 15.9583 6.76953 16.3333 7.22786 16.3333ZM7.22786 11.3333H17.2279C17.6862 11.3333 18.0612 10.9583 18.0612 10.5C18.0612 10.0417 17.6862 9.66667 17.2279 9.66667H7.22786C6.76953 9.66667 6.39453 10.0417 6.39453 10.5C6.39453 10.9583 6.76953 11.3333 7.22786 11.3333ZM6.39453 5.5C6.39453 5.95833 6.76953 6.33333 7.22786 6.33333H17.2279C17.6862 6.33333 18.0612 5.95833 18.0612 5.5C18.0612 5.04167 17.6862 4.66667 17.2279 4.66667H7.22786C6.76953 4.66667 6.39453 5.04167 6.39453 5.5Z" fill="#0B0C0C"/>
</g>
<defs>
<clipPath id="clip0_4894_203938">
<rect width="20" height="20" fill="white" transform="translate(0.5625 0.5)"/>
</clipPath>
</defs>
</svg>
