<svg width="30" height="30" viewBox="0 0 30 30" fill="none" xmlns="http://www.w3.org/2000/svg">
<path d="M14.9987 0.833496C7.1787 0.833496 0.832031 7.18016 0.832031 15.0002C0.832031 22.8202 7.1787 29.1668 14.9987 29.1668C22.8187 29.1668 29.1654 22.8202 29.1654 15.0002C29.1654 7.18016 22.8187 0.833496 14.9987 0.833496ZM11.1595 21.0777L6.0737 15.9918C5.5212 15.4393 5.5212 14.5468 6.0737 13.9943C6.6262 13.4418 7.5187 13.4418 8.0712 13.9943L12.1654 18.0743L21.912 8.32766C22.4645 7.77516 23.357 7.77516 23.9095 8.32766C24.462 8.88016 24.462 9.77266 23.9095 10.3252L13.157 21.0777C12.6187 21.6302 11.712 21.6302 11.1595 21.0777Z" fill="#00703C"/>
</svg>